<svg width="69" height="30" viewBox="0 0 69 30" fill="none" xmlns="http://www.w3.org/2000/svg">
<path d="M3.65625 20.5469H14.4375V23H0.640625V0.25H3.65625V20.5469ZM16.6406 14.3906C16.6406 12.7344 16.9635 11.2448 17.6094 9.92188C18.2656 8.59896 19.1719 7.57812 20.3281 6.85938C21.4948 6.14062 22.8229 5.78125 24.3125 5.78125C26.6146 5.78125 28.474 6.57812 29.8906 8.17188C31.3177 9.76562 32.0312 11.8854 32.0312 14.5312V14.7344C32.0312 16.3802 31.7135 17.8594 31.0781 19.1719C30.4531 20.474 29.5521 21.4896 28.375 22.2188C27.2083 22.9479 25.8646 23.3125 24.3438 23.3125C22.0521 23.3125 20.1927 22.5156 18.7656 20.9219C17.349 19.3281 16.6406 17.2188 16.6406 14.5938V14.3906ZM19.5469 14.7344C19.5469 16.6094 19.9792 18.1146 20.8438 19.25C21.7188 20.3854 22.8854 20.9531 24.3438 20.9531C25.8125 20.9531 26.9792 20.3802 27.8438 19.2344C28.7083 18.0781 29.1406 16.4635 29.1406 14.3906C29.1406 12.5365 28.6979 11.0365 27.8125 9.89062C26.9375 8.73438 25.7708 8.15625 24.3125 8.15625C22.8854 8.15625 21.7344 8.72396 20.8594 9.85938C19.9844 10.9948 19.5469 12.6198 19.5469 14.7344ZM34.9688 14.4062C34.9688 11.7708 35.5781 9.67708 36.7969 8.125C38.0156 6.5625 39.6302 5.78125 41.6406 5.78125C43.7031 5.78125 45.3125 6.51042 46.4688 7.96875L46.6094 6.09375H49.25V22.5938C49.25 24.7812 48.599 26.5052 47.2969 27.7656C46.0052 29.026 44.2656 29.6562 42.0781 29.6562C40.8594 29.6562 39.6667 29.3958 38.5 28.875C37.3333 28.3542 36.4427 27.6406 35.8281 26.7344L37.3281 25C38.5677 26.5312 40.0833 27.2969 41.875 27.2969C43.2812 27.2969 44.375 26.901 45.1562 26.1094C45.9479 25.3177 46.3438 24.2031 46.3438 22.7656V21.3125C45.1875 22.6458 43.6094 23.3125 41.6094 23.3125C39.6302 23.3125 38.026 22.5156 36.7969 20.9219C35.5781 19.3281 34.9688 17.1562 34.9688 14.4062ZM37.875 14.7344C37.875 16.6406 38.2656 18.1406 39.0469 19.2344C39.8281 20.3177 40.9219 20.8594 42.3281 20.8594C44.151 20.8594 45.4896 20.0312 46.3438 18.375V10.6562C45.4583 9.04167 44.1302 8.23438 42.3594 8.23438C40.9531 8.23438 39.8542 8.78125 39.0625 9.875C38.2708 10.9688 37.875 12.5885 37.875 14.7344ZM52.8594 14.3906C52.8594 12.7344 53.1823 11.2448 53.8281 9.92188C54.4844 8.59896 55.3906 7.57812 56.5469 6.85938C57.7135 6.14062 59.0417 5.78125 60.5312 5.78125C62.8333 5.78125 64.6927 6.57812 66.1094 8.17188C67.5365 9.76562 68.25 11.8854 68.25 14.5312V14.7344C68.25 16.3802 67.9323 17.8594 67.2969 19.1719C66.6719 20.474 65.7708 21.4896 64.5938 22.2188C63.4271 22.9479 62.0833 23.3125 60.5625 23.3125C58.2708 23.3125 56.4115 22.5156 54.9844 20.9219C53.5677 19.3281 52.8594 17.2188 52.8594 14.5938V14.3906ZM55.7656 14.7344C55.7656 16.6094 56.1979 18.1146 57.0625 19.25C57.9375 20.3854 59.1042 20.9531 60.5625 20.9531C62.0312 20.9531 63.1979 20.3802 64.0625 19.2344C64.9271 18.0781 65.3594 16.4635 65.3594 14.3906C65.3594 12.5365 64.9167 11.0365 64.0312 9.89062C63.1562 8.73438 61.9896 8.15625 60.5312 8.15625C59.1042 8.15625 57.9531 8.72396 57.0781 9.85938C56.2031 10.9948 55.7656 12.6198 55.7656 14.7344Z" fill="black"/>
</svg>
