<svg width="15" height="14" viewBox="0 0 15 14" fill="none" xmlns="http://www.w3.org/2000/svg">
<path d="M7.0716 0.71186C7.26593 0.38895 7.73407 0.388951 7.9284 0.71186L9.85947 3.92063C9.92929 4.03664 10.0432 4.11937 10.1751 4.14992L13.8235 4.99491C14.1907 5.07995 14.3353 5.52518 14.0883 5.80979L11.6333 8.63791C11.5445 8.74015 11.501 8.87402 11.5128 9.0089L11.8366 12.7399C11.8691 13.1154 11.4904 13.3905 11.1434 13.2435L7.69504 11.7826C7.57038 11.7298 7.42962 11.7298 7.30496 11.7826L3.85662 13.2435C3.5096 13.3905 3.13086 13.1154 3.16345 12.7399L3.48725 9.0089C3.49895 8.87402 3.45546 8.74015 3.3667 8.63791L0.911711 5.80979C0.664657 5.52518 0.809323 5.07995 1.17648 4.99491L4.82494 4.14992C4.95684 4.11937 5.07071 4.03664 5.14053 3.92063L7.0716 0.71186Z" fill="#FD7A1F"/>
</svg>
